<svg version="1.1" id="Layer_1" xmlns="http://www.w3.org/2000/svg" xmlns:xlink="http://www.w3.org/1999/xlink" x="0px" y="0px"
	 width="66.844px" height="35.133px" viewBox="0 0 66.844 35.133" enable-background="new 0 0 66.844 35.133" xml:space="preserve">
	<defs>
		<style type="text/css">
			path {
				stroke: none;
				stroke-width: 0;
				fill: #fff;
			}
		</style>
	</defs>
<g>
	<path fill="#F17022" d="M9.211,25.828c0,1.188,0.035,2.121,0.105,2.801s0.219,1.191,0.445,1.535s0.547,0.563,0.961,0.656
		s0.965,0.141,1.652,0.141h0.445v4.172h-1.266c-0.891,0-1.746-0.047-2.566-0.141s-1.563-0.289-2.227-0.586s-1.242-0.723-1.734-1.277
		s-0.855-1.293-1.09-2.215c-0.172-0.656-0.273-1.324-0.305-2.004s-0.047-1.371-0.047-2.074v-1.547c0-0.75-0.031-1.465-0.094-2.145
		s-0.211-1.277-0.445-1.793s-0.59-0.926-1.066-1.23S0.844,19.664,0,19.664v-4.219c0.844,0,1.504-0.148,1.98-0.445
		s0.832-0.703,1.066-1.219s0.383-1.113,0.445-1.793s0.094-1.395,0.094-2.145V8.297c0-0.703,0.016-1.395,0.047-2.074
		s0.133-1.348,0.305-2.004c0.234-0.922,0.598-1.66,1.09-2.215s1.07-0.98,1.734-1.277s1.406-0.492,2.227-0.586S10.664,0,11.555,0
		h1.266v4.172h-0.445c-0.688,0-1.238,0.043-1.652,0.129S9.988,4.602,9.762,4.945S9.387,5.805,9.316,6.492S9.211,8.117,9.211,9.305
		c0,1.313-0.078,2.43-0.234,3.352s-0.406,1.707-0.75,2.355s-0.777,1.172-1.301,1.57s-1.152,0.723-1.887,0.973
		c0.734,0.25,1.363,0.574,1.887,0.973s0.957,0.922,1.301,1.57s0.594,1.438,0.75,2.367S9.211,24.516,9.211,25.828z"/>
	<path fill="#F17022" d="M23.555,25.828c0,1.188,0.035,2.121,0.105,2.801s0.219,1.191,0.445,1.535s0.547,0.563,0.961,0.656
		s0.965,0.141,1.652,0.141h0.445v4.172h-1.266c-0.891,0-1.746-0.047-2.566-0.141s-1.563-0.289-2.227-0.586s-1.242-0.723-1.734-1.277
		s-0.855-1.293-1.09-2.215c-0.172-0.656-0.273-1.324-0.305-2.004s-0.047-1.371-0.047-2.074v-1.547c0-0.75-0.031-1.465-0.094-2.145
		s-0.211-1.277-0.445-1.793s-0.59-0.926-1.066-1.23s-1.137-0.457-1.98-0.457v-4.219c0.844,0,1.504-0.148,1.98-0.445
		s0.832-0.703,1.066-1.219s0.383-1.113,0.445-1.793s0.094-1.395,0.094-2.145V8.297c0-0.703,0.016-1.395,0.047-2.074
		s0.133-1.348,0.305-2.004c0.234-0.922,0.598-1.66,1.09-2.215s1.07-0.98,1.734-1.277s1.406-0.492,2.227-0.586S25.008,0,25.898,0
		h1.266v4.172h-0.445c-0.688,0-1.238,0.043-1.652,0.129s-0.734,0.301-0.961,0.645S23.73,5.805,23.66,6.492s-0.105,1.625-0.105,2.813
		c0,1.313-0.078,2.43-0.234,3.352s-0.406,1.707-0.75,2.355s-0.777,1.172-1.301,1.57s-1.152,0.723-1.887,0.973
		c0.734,0.25,1.363,0.574,1.887,0.973s0.957,0.922,1.301,1.57s0.594,1.438,0.75,2.367S23.555,24.516,23.555,25.828z"/>
	<path fill="#F17022" d="M43.266,25.828c0-1.313,0.082-2.434,0.246-3.363s0.414-1.719,0.75-2.367s0.766-1.172,1.289-1.57
		s1.152-0.723,1.887-0.973c-0.734-0.25-1.363-0.574-1.887-0.973s-0.953-0.922-1.289-1.57s-0.586-1.434-0.75-2.355
		s-0.246-2.039-0.246-3.352c0-1.188-0.035-2.125-0.105-2.813s-0.219-1.203-0.445-1.547s-0.547-0.559-0.961-0.645
		s-0.965-0.129-1.652-0.129H39.68V0h1.242c0.891,0,1.742,0.047,2.555,0.141s1.555,0.289,2.227,0.586s1.254,0.723,1.746,1.277
		s0.863,1.293,1.113,2.215c0.172,0.656,0.27,1.324,0.293,2.004s0.035,1.371,0.035,2.074v1.547c0,0.75,0.027,1.465,0.082,2.145
		s0.199,1.277,0.434,1.793S50,14.703,50.484,15s1.156,0.445,2.016,0.445v4.219c-0.859,0-1.531,0.152-2.016,0.457
		s-0.844,0.715-1.078,1.23s-0.379,1.113-0.434,1.793s-0.082,1.395-0.082,2.145v1.547c0,0.703-0.012,1.395-0.035,2.074
		s-0.121,1.348-0.293,2.004c-0.25,0.922-0.621,1.66-1.113,2.215s-1.074,0.98-1.746,1.277s-1.414,0.492-2.227,0.586
		s-1.664,0.141-2.555,0.141H39.68v-4.172h0.422c0.688,0,1.238-0.047,1.652-0.141s0.734-0.313,0.961-0.656s0.375-0.855,0.445-1.535
		S43.266,27.016,43.266,25.828z"/>
	<path fill="#F17022" d="M57.609,25.828c0-1.313,0.082-2.434,0.246-3.363s0.414-1.719,0.75-2.367s0.766-1.172,1.289-1.57
		s1.152-0.723,1.887-0.973c-0.734-0.25-1.363-0.574-1.887-0.973s-0.953-0.922-1.289-1.57s-0.586-1.434-0.75-2.355
		s-0.246-2.039-0.246-3.352c0-1.188-0.035-2.125-0.105-2.813s-0.219-1.203-0.445-1.547s-0.547-0.559-0.961-0.645
		s-0.965-0.129-1.652-0.129h-0.422V0h1.242c0.891,0,1.742,0.047,2.555,0.141s1.555,0.289,2.227,0.586s1.254,0.723,1.746,1.277
		s0.863,1.293,1.113,2.215c0.172,0.656,0.27,1.324,0.293,2.004s0.035,1.371,0.035,2.074v1.547c0,0.75,0.027,1.465,0.082,2.145
		s0.199,1.277,0.434,1.793s0.594,0.922,1.078,1.219s1.156,0.445,2.016,0.445v4.219c-0.859,0-1.531,0.152-2.016,0.457
		s-0.844,0.715-1.078,1.23s-0.379,1.113-0.434,1.793s-0.082,1.395-0.082,2.145v1.547c0,0.703-0.012,1.395-0.035,2.074
		s-0.121,1.348-0.293,2.004c-0.25,0.922-0.621,1.66-1.113,2.215s-1.074,0.98-1.746,1.277s-1.414,0.492-2.227,0.586
		s-1.664,0.141-2.555,0.141h-1.242v-4.172h0.422c0.688,0,1.238-0.047,1.652-0.141s0.734-0.313,0.961-0.656s0.375-0.855,0.445-1.535
		S57.609,27.016,57.609,25.828z"/>
</g>
</svg>
